# xmcd
#
# Track frame offsets: 
#        150
#        13979
#        25505
#        38281
#        49814
#        62117
#        79578
#        95298
#        111721
#        126305
#        143930
#        159571
#        171439
#        186589
#        203119
#
# Disc length: 2920 seconds
#
# Revision: 0
# Processed by: cddbd v1.5.2PL0 Copyright (c) Steve Scherf et al.
# Submitted via: ExactAudioCopy v0.95a4
#
DISCID=d20b660f
DTITLE=Various Artist - The Classic Collection: Vol. 1 Classic Country
DYEAR=2007
DGENRE=Country
TTITLE0=Guitars, Cadillacs   -   Dwight Yoakam
TTITLE1=So Much For Pretending   -   Brian White
TTITLE2=Live Until I Die   -   Clay Walker
TTITLE3=Here's A Quarter (Call Someone Who Cares)   -   Travis Tritt
TTITLE4=Wink   -   Neal McCoy
TTITLE5=25 Cents   -   The Wilkensons
TTITLE6=God Blessed Texas   -   Little Texas
TTITLE7=Sticks And Stones   -   Tracy Lawrence
TTITLE8=Every Little Thing   -   Carlene Carter
TTITLE9=I Can Love You Like That   -   John Michael Montgomery
TTITLE10=Nobody Knows   -   Kevin Sharp
TTITLE11=The Kind Of Heart That Breaks   -   Chris Cummings
TTITLE12=Fishin' In The Dark   -   Nitty Gritty Dirt Band
TTITLE13=I Do   -   Paul Brandt
TTITLE14=Forever And Ever, Amen   -   Randy Travis
EXTD=
EXTT0=
EXTT1=
EXTT2=
EXTT3=
EXTT4=
EXTT5=
EXTT6=
EXTT7=
EXTT8=
EXTT9=
EXTT10=
EXTT11=
EXTT12=
EXTT13=
EXTT14=
PLAYORDER=
